# xmcd
#
# Track frame offsets:
#	150
#	25290
#	60938
#	86580
#	124527
#	163280
#	189406
#	221817
#	253980
#
# Disc length: 3785 seconds
#
# Revision: 0
# Processed by: cddbd v1.5.1PL0 Copyright (c) Steve Scherf et al.
# Submitted via: audiograbber 1.82.02
#
DISCID=7c0ec709
DTITLE=Nick and Peaches - Live at Blue Sun
DYEAR=2000
DGENRE=Blues
TTITLE0=Breaking up somebody's home
TTITLE1=I know you love me
TTITLE2=Let's stay together
TTITLE3=Rock me baby
TTITLE4=Lumpty lumb blues
TTITLE5=La ye yo
TTITLE6=Let's do it tonight
TTITLE7=Hoochie coochie woman
TTITLE8=Sweet home Chicago
EXTD=Nick Becattini Band featuring Peaches Staten
EXTT0=
EXTT1=
EXTT2=
EXTT3=
EXTT4=
EXTT5=
EXTT6=
EXTT7=
EXTT8=
PLAYORDER=
